<svg width="26" height="26" viewBox="0 0 26 26" fill="none" xmlns="http://www.w3.org/2000/svg">
<path fill-rule="evenodd" clip-rule="evenodd" d="M23.9364 20.3544C24.6818 18.9492 25.0003 16.6832 25.0003 12.9972C25.0003 9.32581 24.6848 7.07302 23.9315 5.63006C23.1764 4.13164 22.281 3.65603 20.5039 3.54187C19.2907 3.45142 16.2754 3.40039 13.0031 3.40039C9.72369 3.40039 6.70711 3.4514 5.48479 3.54258C3.71762 3.6563 2.82196 4.13296 2.0603 5.63554C1.31788 7.07353 1 9.33732 1 13.0106C1 16.663 1.31942 18.9382 2.06683 20.3715C2.81858 21.8547 3.69996 22.3256 5.48218 22.4633C6.76309 22.5458 9.95039 22.6006 13.0031 22.6006C16.0489 22.6006 19.2347 22.5457 20.5039 22.4642C22.3025 22.3256 23.1837 21.854 23.9364 20.3544ZM20.3683 5.93748C21.4799 6.00894 21.686 6.11885 22.0384 6.82036C22.5514 7.7976 22.8202 9.71009 22.8202 13.011C22.8202 16.2869 22.5499 18.2099 22.0408 19.1702C21.6872 19.8739 21.4825 19.9834 20.3657 20.0695C19.1645 20.1466 16.0096 20.201 13.0048 20.201C9.99328 20.201 6.83682 20.1466 5.62402 20.0686C4.52108 19.9833 4.31341 19.8724 3.96768 19.1903C3.45508 18.2072 3.18359 16.2734 3.18359 12.9975C3.18359 9.72362 3.45364 7.80047 3.96349 6.8129C4.3146 6.12031 4.52373 6.00902 5.62409 5.93817C6.78918 5.85131 9.7774 5.80078 13.0048 5.80078C16.2253 5.80078 19.2121 5.85133 20.3683 5.93748ZM10.8183 9.40032L16.2729 13.0004L10.8183 16.6004V9.40032Z" fill="#3A734F"/>
</svg>
