<svg width="14" height="26" viewBox="0 0 14 26" fill="none" xmlns="http://www.w3.org/2000/svg">
<path d="M8.08221 8.62695H4.10547V22.6192H8.08221V8.62695Z" stroke="#3A734F" stroke-miterlimit="10" stroke-linecap="round" stroke-linejoin="round"/>
<path d="M6.09375 8.62657V7.27637" stroke="#3A734F" stroke-miterlimit="10" stroke-linecap="round" stroke-linejoin="round"/>
<path d="M6.06346 4.3457C6.06346 4.3457 5.03298 5.81102 6.06346 7.27633" stroke="#3A734F" stroke-miterlimit="10" stroke-linecap="round" stroke-linejoin="round"/>
<path d="M6.11914 4.3457C6.11914 4.3457 7.14963 5.81102 6.11914 7.27633" stroke="#3A734F" stroke-miterlimit="10" stroke-linecap="round" stroke-linejoin="round"/>
<path d="M4.15199 6.99707H2.70898" stroke="#3A734F" stroke-miterlimit="10" stroke-linecap="round" stroke-linejoin="round"/>
<path d="M4.1518 4.34553L2.77344 3.80371" stroke="#3A734F" stroke-miterlimit="10" stroke-linecap="round" stroke-linejoin="round"/>
<path d="M7.91406 4.34553L9.29243 3.80371" stroke="#3A734F" stroke-miterlimit="10" stroke-linecap="round" stroke-linejoin="round"/>
<path d="M9.32753 6.99707H7.88477" stroke="#3A734F" stroke-miterlimit="10" stroke-linecap="round" stroke-linejoin="round"/>
<path d="M6.05469 1.11035V2.57567" stroke="#3A734F" stroke-miterlimit="10" stroke-linecap="round" stroke-linejoin="round"/>
<path d="M7.11914 11.3223H7.91601" stroke="#3A734F" stroke-miterlimit="10" stroke-linecap="round" stroke-linejoin="round"/>
<path d="M4.10547 11.3223H6.31141L6.3338 11.7105C6.3338 11.925 6.50508 12.0988 6.71608 12.0988C6.9273 12.0988 7.09835 11.9248 7.09835 11.7105V11.3223" stroke="#3A734F" stroke-miterlimit="10" stroke-linecap="round" stroke-linejoin="round"/>
<path d="M0.839844 22.7227H11.3335" stroke="#3A734F" stroke-miterlimit="10" stroke-linecap="round" stroke-linejoin="round"/>
<path d="M11.3508 22.7199C12.4161 22.7199 13.2797 21.8428 13.2797 20.7608C13.2797 19.6789 12.4161 18.8018 11.3508 18.8018C10.2855 18.8018 9.42188 19.6789 9.42188 20.7608C9.42188 21.8428 10.2855 22.7199 11.3508 22.7199Z" stroke="#3A734F" stroke-miterlimit="10" stroke-linecap="round" stroke-linejoin="round"/>
</svg>
